M48
; DRILL file {KiCad 9.0.6-84-g1a69f21462} date 2026-01-13T12:17:02+0000
; FORMAT={-:-/ absolute / metric / decimal}
; #@! TF.CreationDate,2026-01-13T12:17:02+00:00
; #@! TF.GenerationSoftware,Kicad,Pcbnew,9.0.6-84-g1a69f21462
; #@! TF.FileFunction,MixedPlating,1,2
FMAT,2
METRIC
; #@! TA.AperFunction,Plated,PTH,ViaDrill
T1C0.300
; #@! TA.AperFunction,Plated,PTH,ComponentDrill
T2C0.800
%
G90
G05
T1
X56.45Y-63.025
X56.55Y-56.125
X56.575Y-38.375
X56.725Y-59.45
X56.875Y-48.5
X57.75Y-62.025
X58.55Y-53.2
X60.7Y-64.525
X60.75Y-62.925
X62.1Y-67.932
X62.1Y-70.007
X63.05Y-48.2
X63.475Y-54.025
X64.15Y-58.075
X65.625Y-47.712
X66.625Y-62.375
X67.77Y-58.427
X68.3Y-54.9
X68.55Y-38.25
X68.55Y-70.55
T2
X54.977Y-36.93
X54.977Y-39.47
X54.977Y-42.01
X54.977Y-44.55
X54.977Y-47.09
X54.977Y-49.63
X54.977Y-52.17
X54.977Y-54.71
X54.977Y-57.25
X54.977Y-59.79
X54.977Y-62.33
X54.977Y-64.87
X54.977Y-67.41
X54.977Y-69.95
X70.218Y-36.93
X70.218Y-39.47
X70.218Y-42.01
X70.218Y-44.55
X70.218Y-47.09
X70.218Y-49.63
X70.218Y-52.17
X70.218Y-54.71
X70.218Y-57.25
X70.218Y-59.79
X70.218Y-62.33
X70.218Y-64.87
X70.218Y-67.41
X70.218Y-69.95
M30
